<svg width="28" height="28" viewBox="0 0 28 28" fill="none" xmlns="http://www.w3.org/2000/svg">
    <path fill-rule="evenodd" clip-rule="evenodd" d="M8.709 1.24363C10.0775 1.18063 10.5138 1.16663 13.9998 1.16663C17.4858 1.16663 17.9222 1.18179 19.2895 1.24363C20.6568 1.30546 21.5902 1.52363 22.4068 1.83979C23.262 2.16296 24.0378 2.66813 24.6795 3.32146C25.3328 3.96196 25.8368 4.73663 26.1588 5.59296C26.4762 6.40963 26.6932 7.34296 26.7562 8.70796C26.8192 10.0788 26.8332 10.5151 26.8332 14C26.8332 17.486 26.818 17.9223 26.7562 19.2908C26.6943 20.6558 26.4762 21.5891 26.1588 22.4058C25.8368 23.2622 25.332 24.0382 24.6795 24.6796C24.0378 25.333 23.262 25.837 22.4068 26.159C21.5902 26.4763 20.6568 26.6933 19.2918 26.7563C17.9222 26.8193 17.4858 26.8333 13.9998 26.8333C10.5138 26.8333 10.0775 26.8181 8.709 26.7563C7.344 26.6945 6.41067 26.4763 5.594 26.159C4.73758 25.8369 3.96163 25.3321 3.32017 24.6796C2.66728 24.0387 2.16204 23.2632 1.83967 22.407C1.5235 21.5903 1.3065 20.657 1.2435 19.292C1.1805 17.9211 1.1665 17.4848 1.1665 14C1.1665 10.514 1.18167 10.0776 1.2435 8.71029C1.30534 7.34296 1.5235 6.40963 1.83967 5.59296C2.16251 4.73672 2.66814 3.96116 3.32134 3.32029C3.96188 2.66754 4.73705 2.16231 5.59284 1.83979C6.4095 1.52363 7.34284 1.30663 8.70784 1.24363H8.709ZM19.1857 3.55363C17.8323 3.49179 17.4263 3.47896 13.9998 3.47896C10.5733 3.47896 10.1673 3.49179 8.814 3.55363C7.56217 3.61079 6.88317 3.81963 6.4305 3.99579C5.832 4.22913 5.40384 4.50563 4.95467 4.95479C4.52889 5.36902 4.20121 5.87329 3.99567 6.43063C3.8195 6.88329 3.61067 7.56229 3.5535 8.81413C3.49167 10.1675 3.47884 10.5735 3.47884 14C3.47884 17.4265 3.49167 17.8325 3.5535 19.1858C3.61067 20.4376 3.8195 21.1166 3.99567 21.5693C4.201 22.1258 4.52884 22.631 4.95467 23.0451C5.36884 23.471 5.874 23.7988 6.4305 24.0041C6.88317 24.1803 7.56217 24.3891 8.814 24.4463C10.1673 24.5081 10.5722 24.521 13.9998 24.521C17.4275 24.521 17.8323 24.5081 19.1857 24.4463C20.4375 24.3891 21.1165 24.1803 21.5692 24.0041C22.1677 23.7708 22.5958 23.4943 23.045 23.0451C23.4708 22.631 23.7987 22.1258 24.004 21.5693C24.1802 21.1166 24.389 20.4376 24.4462 19.1858C24.508 17.8325 24.5208 17.4265 24.5208 14C24.5208 10.5735 24.508 10.1675 24.4462 8.81413C24.389 7.56229 24.1802 6.88329 24.004 6.43063C23.7707 5.83213 23.4942 5.40396 23.045 4.95479C22.6308 4.52904 22.1265 4.20137 21.5692 3.99579C21.1165 3.81963 20.4375 3.61079 19.1857 3.55363ZM12.3607 17.9561C13.2761 18.3372 14.2954 18.3886 15.2446 18.1016C16.1937 17.8146 17.0138 17.207 17.5647 16.3826C18.1156 15.5581 18.3632 14.568 18.2652 13.5812C18.1672 12.5945 17.7297 11.6724 17.0273 10.9725C16.5796 10.525 16.0383 10.1824 15.4422 9.9693C14.8462 9.75619 14.2103 9.67788 13.5804 9.74001C12.9505 9.80214 12.3422 10.0032 11.7993 10.3286C11.2564 10.6541 10.7924 11.0958 10.4407 11.6221C10.089 12.1484 9.85839 12.7461 9.76544 13.3722C9.67249 13.9984 9.71951 14.6373 9.90313 15.2431C10.0868 15.8488 10.4024 16.4063 10.8273 16.8755C11.2523 17.3446 11.776 17.7137 12.3607 17.9561ZM9.3355 9.33563C9.94803 8.7231 10.6752 8.23721 11.4755 7.90571C12.2758 7.57422 13.1336 7.4036 13.9998 7.4036C14.8661 7.4036 15.7238 7.57422 16.5242 7.90571C17.3245 8.23721 18.0516 8.7231 18.6642 9.33563C19.2767 9.94815 19.7626 10.6753 20.0941 11.4756C20.4256 12.2759 20.5962 13.1337 20.5962 14C20.5962 14.8662 20.4256 15.724 20.0941 16.5243C19.7626 17.3246 19.2767 18.0518 18.6642 18.6643C17.4271 19.9014 15.7493 20.5963 13.9998 20.5963C12.2504 20.5963 10.5726 19.9014 9.3355 18.6643C8.09845 17.4272 7.40347 15.7494 7.40347 14C7.40347 12.2505 8.09845 10.5727 9.3355 9.33563ZM22.0592 8.38596C22.211 8.24277 22.3325 8.07059 22.4165 7.8796C22.5006 7.6886 22.5454 7.48269 22.5485 7.27404C22.5515 7.0654 22.5127 6.85826 22.4342 6.6649C22.3558 6.47154 22.2393 6.29589 22.0918 6.14834C21.9442 6.00079 21.7686 5.88434 21.5752 5.8059C21.3819 5.72745 21.1747 5.6886 20.9661 5.69164C20.7574 5.69468 20.5515 5.73956 20.3605 5.82361C20.1695 5.90765 19.9974 6.02917 19.8542 6.18096C19.5757 6.47616 19.4232 6.86827 19.4292 7.27404C19.4351 7.67982 19.5989 8.06732 19.8859 8.35428C20.1728 8.64123 20.5603 8.80506 20.9661 8.81097C21.3719 8.81689 21.764 8.66443 22.0592 8.38596Z" fill="white"/>
</svg>
